<mxfile host="app.diagrams.net" modified="2023-10-20T09:42:59.280Z" agent="Mozilla/5.0 (Windows NT 10.0; Win64; x64) AppleWebKit/537.36 (KHTML, like Gecko) Chrome/118.0.0.0 Safari/537.36 Edg/118.0.2088.46" etag="lYvwFrkPUIfqjvvCZk8x" version="21.7.5" type="github">
  <diagram name="第 1 页" id="vxvac77AASENB_ynUYvU">
    <mxGraphModel dx="1173" dy="772" grid="1" gridSize="10" guides="1" tooltips="1" connect="1" arrows="1" fold="1" page="1" pageScale="1" pageWidth="827" pageHeight="1169" math="0" shadow="0">
      <root>
        <mxCell id="0" />
        <mxCell id="1" parent="0" />
        <mxCell id="EdxY59WOk6vE74WskkfF-1" value="" style="html=1;whiteSpace=wrap;" parent="1" vertex="1">
          <mxGeometry x="110" y="190" width="190" height="480" as="geometry" />
        </mxCell>
        <mxCell id="EdxY59WOk6vE74WskkfF-2" value="&lt;font style=&quot;font-size: 14px;&quot;&gt;还款子系统&lt;/font&gt;" style="text;html=1;align=center;verticalAlign=middle;resizable=0;points=[];autosize=1;strokeColor=none;fillColor=none;" parent="1" vertex="1">
          <mxGeometry x="110" y="191.25" width="90" height="30" as="geometry" />
        </mxCell>
        <mxCell id="EdxY59WOk6vE74WskkfF-3" value="&lt;span style=&quot;font-size: 14px;&quot;&gt;扣款定时任务&lt;/span&gt;" style="ellipse;whiteSpace=wrap;html=1;" parent="1" vertex="1">
          <mxGeometry x="145" y="221.25" width="120" height="47.5" as="geometry" />
        </mxCell>
        <mxCell id="EdxY59WOk6vE74WskkfF-4" value="&lt;span style=&quot;font-size: 14px;&quot;&gt;更新还款计划&lt;/span&gt;" style="ellipse;whiteSpace=wrap;html=1;" parent="1" vertex="1">
          <mxGeometry x="145" y="280" width="120" height="47.5" as="geometry" />
        </mxCell>
        <mxCell id="EdxY59WOk6vE74WskkfF-5" value="&lt;span style=&quot;font-size: 14px;&quot;&gt;更新借据详情&lt;/span&gt;" style="ellipse;whiteSpace=wrap;html=1;" parent="1" vertex="1">
          <mxGeometry x="145" y="347.5" width="120" height="47.5" as="geometry" />
        </mxCell>
        <mxCell id="EdxY59WOk6vE74WskkfF-6" value="&lt;span style=&quot;font-size: 14px;&quot;&gt;更新授信额度&lt;/span&gt;" style="ellipse;whiteSpace=wrap;html=1;" parent="1" vertex="1">
          <mxGeometry x="145" y="410" width="120" height="47.5" as="geometry" />
        </mxCell>
        <mxCell id="EdxY59WOk6vE74WskkfF-7" value="&lt;span style=&quot;font-size: 14px;&quot;&gt;结清上报&lt;/span&gt;" style="ellipse;whiteSpace=wrap;html=1;" parent="1" vertex="1">
          <mxGeometry x="145" y="550" width="120" height="47.5" as="geometry" />
        </mxCell>
        <mxCell id="EdxY59WOk6vE74WskkfF-8" value="&lt;span style=&quot;font-size: 14px;&quot;&gt;逾期上报&lt;/span&gt;" style="ellipse;whiteSpace=wrap;html=1;" parent="1" vertex="1">
          <mxGeometry x="145" y="610" width="120" height="47.5" as="geometry" />
        </mxCell>
        <mxCell id="EdxY59WOk6vE74WskkfF-9" value="互联网银行" style="shape=umlActor;verticalLabelPosition=bottom;verticalAlign=top;html=1;" parent="1" vertex="1">
          <mxGeometry x="30" y="555" width="30" height="60" as="geometry" />
        </mxCell>
        <mxCell id="EdxY59WOk6vE74WskkfF-11" value="" style="endArrow=none;html=1;rounded=0;entryX=0;entryY=0.5;entryDx=0;entryDy=0;exitX=0.5;exitY=0.5;exitDx=0;exitDy=0;exitPerimeter=0;" parent="1" source="EdxY59WOk6vE74WskkfF-9" target="EdxY59WOk6vE74WskkfF-7" edge="1">
          <mxGeometry width="50" height="50" relative="1" as="geometry">
            <mxPoint x="90" y="600" as="sourcePoint" />
            <mxPoint x="140" y="550" as="targetPoint" />
          </mxGeometry>
        </mxCell>
        <mxCell id="EdxY59WOk6vE74WskkfF-12" value="" style="endArrow=none;html=1;rounded=0;entryX=0;entryY=0.5;entryDx=0;entryDy=0;exitX=0.544;exitY=0.656;exitDx=0;exitDy=0;exitPerimeter=0;" parent="1" source="EdxY59WOk6vE74WskkfF-9" target="EdxY59WOk6vE74WskkfF-8" edge="1">
          <mxGeometry width="50" height="50" relative="1" as="geometry">
            <mxPoint x="35" y="595" as="sourcePoint" />
            <mxPoint x="155" y="564" as="targetPoint" />
          </mxGeometry>
        </mxCell>
        <mxCell id="EdxY59WOk6vE74WskkfF-13" value="&lt;span style=&quot;font-size: 14px;&quot;&gt;还款结果通知&lt;/span&gt;" style="ellipse;whiteSpace=wrap;html=1;" parent="1" vertex="1">
          <mxGeometry x="400" y="221.25" width="120" height="47.5" as="geometry" />
        </mxCell>
        <mxCell id="EdxY59WOk6vE74WskkfF-17" value="借款人" style="shape=umlActor;verticalLabelPosition=bottom;verticalAlign=top;html=1;" parent="1" vertex="1">
          <mxGeometry x="680" y="350" width="30" height="60" as="geometry" />
        </mxCell>
        <mxCell id="EdxY59WOk6vE74WskkfF-19" value="&lt;span style=&quot;font-size: 14px;&quot;&gt;查看还款计划&lt;/span&gt;" style="ellipse;whiteSpace=wrap;html=1;" parent="1" vertex="1">
          <mxGeometry x="400" y="300" width="120" height="47.5" as="geometry" />
        </mxCell>
        <mxCell id="EdxY59WOk6vE74WskkfF-20" value="&lt;span style=&quot;font-size: 14px;&quot;&gt;查看借据详情&lt;/span&gt;" style="ellipse;whiteSpace=wrap;html=1;" parent="1" vertex="1">
          <mxGeometry x="400" y="376.25" width="120" height="47.5" as="geometry" />
        </mxCell>
        <mxCell id="EdxY59WOk6vE74WskkfF-21" value="&lt;span style=&quot;font-size: 14px;&quot;&gt;查看授信额度&lt;/span&gt;" style="ellipse;whiteSpace=wrap;html=1;" parent="1" vertex="1">
          <mxGeometry x="400" y="450" width="120" height="47.5" as="geometry" />
        </mxCell>
        <mxCell id="EdxY59WOk6vE74WskkfF-22" style="rounded=0;orthogonalLoop=1;jettySize=auto;html=1;entryX=1;entryY=0.5;entryDx=0;entryDy=0;endArrow=none;endFill=0;" parent="1" target="EdxY59WOk6vE74WskkfF-19" edge="1">
          <mxGeometry relative="1" as="geometry">
            <mxPoint x="680" y="370" as="sourcePoint" />
            <mxPoint x="530" y="255" as="targetPoint" />
          </mxGeometry>
        </mxCell>
        <mxCell id="EdxY59WOk6vE74WskkfF-23" style="rounded=0;orthogonalLoop=1;jettySize=auto;html=1;entryX=1;entryY=0.5;entryDx=0;entryDy=0;endArrow=none;endFill=0;exitX=0;exitY=0.3333333333333333;exitDx=0;exitDy=0;exitPerimeter=0;" parent="1" target="EdxY59WOk6vE74WskkfF-20" edge="1" source="EdxY59WOk6vE74WskkfF-17">
          <mxGeometry relative="1" as="geometry">
            <mxPoint x="660" y="370" as="sourcePoint" />
            <mxPoint x="530" y="334" as="targetPoint" />
          </mxGeometry>
        </mxCell>
        <mxCell id="EdxY59WOk6vE74WskkfF-24" style="rounded=0;orthogonalLoop=1;jettySize=auto;html=1;entryX=1;entryY=0.5;entryDx=0;entryDy=0;endArrow=none;endFill=0;exitX=0.5;exitY=0.5;exitDx=0;exitDy=0;exitPerimeter=0;" parent="1" source="EdxY59WOk6vE74WskkfF-17" target="EdxY59WOk6vE74WskkfF-21" edge="1">
          <mxGeometry relative="1" as="geometry">
            <mxPoint x="670" y="380" as="sourcePoint" />
            <mxPoint x="530" y="410" as="targetPoint" />
          </mxGeometry>
        </mxCell>
        <mxCell id="EdxY59WOk6vE74WskkfF-28" value="&amp;lt;include&amp;gt;" style="endArrow=open;endSize=12;dashed=1;html=1;rounded=0;entryX=1;entryY=0.5;entryDx=0;entryDy=0;exitX=0;exitY=0.5;exitDx=0;exitDy=0;" parent="1" source="EdxY59WOk6vE74WskkfF-19" target="EdxY59WOk6vE74WskkfF-4" edge="1">
          <mxGeometry width="160" relative="1" as="geometry">
            <mxPoint x="130" y="360" as="sourcePoint" />
            <mxPoint x="290" y="360" as="targetPoint" />
          </mxGeometry>
        </mxCell>
        <mxCell id="EdxY59WOk6vE74WskkfF-29" value="&amp;lt;include&amp;gt;" style="endArrow=open;endSize=12;dashed=1;html=1;rounded=0;exitX=0;exitY=0.5;exitDx=0;exitDy=0;entryX=1;entryY=0.5;entryDx=0;entryDy=0;" parent="1" edge="1" target="EdxY59WOk6vE74WskkfF-5">
          <mxGeometry width="160" relative="1" as="geometry">
            <mxPoint x="400" y="399" as="sourcePoint" />
            <mxPoint x="265" y="399" as="targetPoint" />
          </mxGeometry>
        </mxCell>
        <mxCell id="EdxY59WOk6vE74WskkfF-30" value="&amp;lt;include&amp;gt;" style="endArrow=open;endSize=12;dashed=1;html=1;rounded=0;entryX=1;entryY=0.5;entryDx=0;entryDy=0;exitX=0;exitY=0.5;exitDx=0;exitDy=0;" parent="1" edge="1" target="EdxY59WOk6vE74WskkfF-6">
          <mxGeometry width="160" relative="1" as="geometry">
            <mxPoint x="400" y="473.25" as="sourcePoint" />
            <mxPoint x="265" y="473.25" as="targetPoint" />
          </mxGeometry>
        </mxCell>
        <mxCell id="T9pWucE_ZUP128LMJ0dc-1" value="&lt;span style=&quot;font-size: 14px;&quot;&gt;额度更新上报&lt;/span&gt;" style="ellipse;whiteSpace=wrap;html=1;" vertex="1" parent="1">
          <mxGeometry x="145" y="490" width="120" height="47.5" as="geometry" />
        </mxCell>
        <mxCell id="T9pWucE_ZUP128LMJ0dc-2" value="" style="endArrow=none;html=1;rounded=0;exitX=0.5;exitY=0;exitDx=0;exitDy=0;entryX=0.5;entryY=1;entryDx=0;entryDy=0;" edge="1" parent="1" source="T9pWucE_ZUP128LMJ0dc-1" target="EdxY59WOk6vE74WskkfF-6">
          <mxGeometry width="50" height="50" relative="1" as="geometry">
            <mxPoint x="55" y="595" as="sourcePoint" />
            <mxPoint x="205" y="460" as="targetPoint" />
          </mxGeometry>
        </mxCell>
        <mxCell id="T9pWucE_ZUP128LMJ0dc-3" value="" style="endArrow=none;html=1;rounded=0;entryX=0;entryY=0.5;entryDx=0;entryDy=0;exitX=1;exitY=0.3333333333333333;exitDx=0;exitDy=0;exitPerimeter=0;" edge="1" parent="1" source="EdxY59WOk6vE74WskkfF-9" target="T9pWucE_ZUP128LMJ0dc-1">
          <mxGeometry width="50" height="50" relative="1" as="geometry">
            <mxPoint x="55" y="595" as="sourcePoint" />
            <mxPoint x="155" y="584" as="targetPoint" />
          </mxGeometry>
        </mxCell>
        <mxCell id="T9pWucE_ZUP128LMJ0dc-4" value="&amp;lt;include&amp;gt;" style="endArrow=open;endSize=12;dashed=1;html=1;rounded=0;entryX=0;entryY=0.5;entryDx=0;entryDy=0;exitX=1;exitY=0.5;exitDx=0;exitDy=0;" edge="1" parent="1" source="EdxY59WOk6vE74WskkfF-3" target="EdxY59WOk6vE74WskkfF-13">
          <mxGeometry width="160" relative="1" as="geometry">
            <mxPoint x="410" y="334" as="sourcePoint" />
            <mxPoint x="275" y="314" as="targetPoint" />
          </mxGeometry>
        </mxCell>
        <mxCell id="T9pWucE_ZUP128LMJ0dc-5" value="&lt;span style=&quot;font-size: 14px;&quot;&gt;还款提交&lt;/span&gt;" style="ellipse;whiteSpace=wrap;html=1;" vertex="1" parent="1">
          <mxGeometry x="635" y="268.75" width="120" height="47.5" as="geometry" />
        </mxCell>
        <mxCell id="T9pWucE_ZUP128LMJ0dc-6" style="rounded=0;orthogonalLoop=1;jettySize=auto;html=1;entryX=0.5;entryY=1;entryDx=0;entryDy=0;endArrow=none;endFill=0;exitX=0.5;exitY=0;exitDx=0;exitDy=0;exitPerimeter=0;" edge="1" parent="1" source="EdxY59WOk6vE74WskkfF-17" target="T9pWucE_ZUP128LMJ0dc-5">
          <mxGeometry relative="1" as="geometry">
            <mxPoint x="670" y="377" as="sourcePoint" />
            <mxPoint x="530" y="334" as="targetPoint" />
          </mxGeometry>
        </mxCell>
        <mxCell id="T9pWucE_ZUP128LMJ0dc-8" value="&amp;lt;include&amp;gt;" style="endArrow=open;endSize=12;dashed=1;html=1;rounded=0;exitX=0;exitY=0.5;exitDx=0;exitDy=0;" edge="1" parent="1" source="T9pWucE_ZUP128LMJ0dc-5" target="EdxY59WOk6vE74WskkfF-13">
          <mxGeometry width="160" relative="1" as="geometry">
            <mxPoint x="710" y="241.25" as="sourcePoint" />
            <mxPoint x="575" y="221.25" as="targetPoint" />
          </mxGeometry>
        </mxCell>
      </root>
    </mxGraphModel>
  </diagram>
</mxfile>
